<svg width="64" height="64" viewBox="0 0 64 64" fill="none" xmlns="http://www.w3.org/2000/svg">
<g clip-path="url(#clip0_1_2)">
<rect width="64" height="64" rx="14" fill="#E5412E"/>
<path d="M44.3704 32.914L39.4766 41.8914L43.5469 41.8914L48.5484 33.6299C49.117 32.6906 49.1271 31.5157 48.5746 30.5668L36.6872 10.1506C36.3036 9.49172 35.3534 9.48725 34.9636 10.1425L34.188 11.4462C33.8168 12.0702 33.8129 12.8465 34.178 13.4742L44.3432 30.9512C44.6948 31.5557 44.7051 32.3 44.3704 32.914Z" fill="white"/>
<path d="M44.3407 31.0751L39.2397 22.1086L43.5469 22.1086L48.5484 30.3701C49.117 31.3094 49.1271 32.4843 48.5746 33.4333L36.6872 53.8494C36.3036 54.5083 35.3534 54.5128 34.9636 53.8575L34.188 52.5539C33.8168 51.9298 33.8129 51.1535 34.178 50.5258L39.248 41.8089L44.3311 33.0696C44.6892 32.4539 44.6929 31.6942 44.3407 31.0751Z" fill="white"/>
<path d="M25.313 32.914L20.4192 41.8914L24.4895 41.8914L29.491 33.6299C30.0596 32.6906 30.0697 31.5157 29.5172 30.5668L17.6298 10.1506C17.2462 9.49172 16.296 9.48725 15.9062 10.1425L15.1306 11.4462C14.7594 12.0702 14.7555 12.8465 15.1206 13.4742L25.2858 30.9512C25.6374 31.5557 25.6477 32.3 25.313 32.914Z" fill="white"/>
<path d="M25.2833 31.0751L20.1823 22.1086L24.4895 22.1086L29.491 30.3701C30.0596 31.3094 30.0697 32.4843 29.5172 33.4333L17.6298 53.8494C17.2462 54.5083 16.296 54.5128 15.9062 53.8575L15.1306 52.5539C14.7594 51.9298 14.7555 51.1535 15.1206 50.5258L20.1906 41.8089L25.2737 33.0696C25.6318 32.4539 25.6355 31.6942 25.2833 31.0751Z" fill="white"/>
<path d="M34.8322 32.914L29.9384 41.8914L34.0087 41.8914L39.0102 33.6299C39.5788 32.6906 39.5889 31.5157 39.0364 30.5668L27.149 10.1506C26.7654 9.49172 25.8152 9.48725 25.4254 10.1425L24.6498 11.4462C24.2786 12.0702 24.2748 12.8465 24.6399 13.4742L34.805 30.9512C35.1566 31.5557 35.1669 32.3 34.8322 32.914Z" fill="white"/>
<path d="M34.8025 31.0751L29.7015 22.1086L34.0087 22.1086L39.0102 30.3701C39.5788 31.3094 39.5889 32.4843 39.0364 33.4333L27.149 53.8494C26.7654 54.5083 25.8152 54.5128 25.4254 53.8575L24.6498 52.5539C24.2786 51.9298 24.2748 51.1535 24.6399 50.5258L29.7099 41.8089L34.7929 33.0696C35.151 32.4539 35.1547 31.6942 34.8025 31.0751Z" fill="white"/>
</g>
<defs>
<clipPath id="clip0_1_2">
<rect width="64" height="64" fill="white"/>
</clipPath>
</defs>
</svg>
